<svg width="1920" height="1024" viewBox="0 0 1920 1024" fill="none" xmlns="http://www.w3.org/2000/svg" xmlns:xlink="http://www.w3.org/1999/xlink">
<g clip-path="url(#clip0_582_2376)">
<rect width="1920" height="1024" fill="#2F6690"/>
<rect x="160" width="1600" height="1026" fill="url(#pattern0_582_2376)"/>
<path d="M251.213 666.725L243.262 685.077L251.213 666.725ZM285.288 568.525L302.813 558.887L283.538 523.838L266.013 533.475L275.65 551L285.288 568.525ZM251.213 666.725L259.163 648.373C237.755 639.099 230.196 630.84 227.86 626.22C226.307 623.149 225.932 619.535 229.692 613.031C233.816 605.896 241.727 597.823 252.455 589.579C262.916 581.54 274.765 574.312 285.288 568.525L275.65 551L266.013 533.475C254.461 539.828 240.718 548.153 228.083 557.862C215.715 567.365 203.027 579.233 195.062 593.012C186.731 607.422 182.774 625.697 192.163 644.267C200.768 661.288 218.672 674.424 243.262 685.077L251.213 666.725ZM273.871 977.225L277.866 957.628C249.63 951.871 232.189 944.148 221.81 936.254C212.072 928.847 208.356 921.211 207.319 913.255C206.167 904.42 208.108 893.222 213.618 879.232C219.077 865.372 227.376 850.395 237.118 834.47C241.956 826.562 247.032 818.608 252.187 810.546C257.305 802.54 262.517 794.403 267.449 786.389C277.215 770.52 286.545 754.091 292.558 738.323C298.465 722.835 302.278 705.191 297.452 688.134C292.29 669.888 278.622 656.804 259.163 648.373L251.213 666.725L243.262 685.077C254.958 690.144 257.93 695.371 258.963 699.023C260.333 703.865 259.898 711.708 255.184 724.071C250.575 736.154 242.912 749.94 233.383 765.425C228.668 773.087 223.657 780.911 218.486 788.999C213.352 797.03 208.072 805.301 202.997 813.596C192.913 830.078 183.156 847.422 176.401 864.573C169.697 881.593 165.265 900.095 167.654 918.425C170.158 937.634 179.894 954.628 197.594 968.091C214.653 981.066 238.634 990.452 269.876 996.821L273.871 977.225ZM1258.52 616.226L1258.75 596.227C1200.63 595.544 1123.66 622.726 1040.17 660.147C955.876 697.93 861.007 748.067 766.542 796.152C671.619 844.47 576.883 890.838 491.296 922.145C404.925 953.74 331.508 968.563 277.866 957.628L273.871 977.225L269.876 996.821C335.189 1010.14 417.732 991.647 505.038 959.711C593.129 927.487 689.787 880.106 784.687 831.799C880.046 783.259 973.431 733.896 1056.53 696.648C1140.44 659.038 1210.01 635.657 1258.28 636.224L1258.52 616.226ZM1456.53 941.725C1476.51 942.639 1476.51 942.632 1476.51 942.623C1476.51 942.618 1476.51 942.608 1476.51 942.599C1476.51 942.58 1476.51 942.557 1476.51 942.529C1476.52 942.472 1476.52 942.396 1476.52 942.301C1476.53 942.11 1476.54 941.843 1476.55 941.501C1476.58 940.816 1476.61 939.834 1476.64 938.573C1476.7 936.051 1476.76 932.412 1476.75 927.815C1476.74 918.627 1476.47 905.578 1475.47 889.941C1473.48 858.773 1468.53 816.816 1456.57 774.475C1444.65 732.309 1425.39 688.35 1393.86 654.507C1361.8 620.094 1317.71 596.92 1258.75 596.227L1258.52 616.226L1258.28 636.224C1305.72 636.782 1339.58 654.92 1364.59 681.773C1390.14 709.195 1407.08 746.454 1418.07 785.351C1429.01 824.073 1433.67 863.021 1435.56 892.494C1436.49 907.177 1436.74 919.382 1436.75 927.868C1436.76 932.107 1436.7 935.411 1436.65 937.622C1436.62 938.727 1436.6 939.558 1436.58 940.097C1436.57 940.366 1436.56 940.561 1436.56 940.681C1436.55 940.741 1436.55 940.782 1436.55 940.804C1436.55 940.815 1436.55 940.821 1436.55 940.822C1436.55 940.823 1436.55 940.82 1436.55 940.82C1436.55 940.816 1436.55 940.811 1456.53 941.725Z" fill="#F4F4F4"/>
<path d="M300.505 514.261L282.98 523.898L302.255 558.948L319.78 549.31L310.143 531.786L300.505 514.261ZM345.773 536.393C355.931 532.054 360.648 520.303 356.31 510.145C351.972 499.987 340.22 495.269 330.062 499.607L337.917 518L345.773 536.393ZM310.143 531.786L319.78 549.31C327.194 545.233 333.777 541.966 338.487 539.728C340.837 538.61 342.709 537.755 343.969 537.189C344.599 536.907 345.076 536.697 345.382 536.563C345.535 536.496 345.646 536.448 345.712 536.419C345.744 536.405 345.766 536.396 345.776 536.391C345.782 536.389 345.784 536.388 345.783 536.388C345.783 536.388 345.782 536.389 345.78 536.39C345.779 536.39 345.778 536.39 345.777 536.391C345.776 536.391 345.775 536.392 345.775 536.392C345.774 536.392 345.773 536.393 337.917 518C330.062 499.607 330.061 499.608 330.059 499.608C330.059 499.609 330.057 499.609 330.056 499.61C330.054 499.61 330.052 499.611 330.05 499.612C330.045 499.614 330.04 499.617 330.034 499.619C330.021 499.625 330.006 499.631 329.988 499.639C329.951 499.655 329.903 499.676 329.843 499.701C329.724 499.753 329.559 499.825 329.35 499.916C328.933 500.099 328.34 500.36 327.589 500.697C326.088 501.371 323.952 502.348 321.315 503.601C316.052 506.102 308.748 509.728 300.505 514.261L310.143 531.786Z" fill="#F58114"/>
<rect x="1371.04" y="876.656" width="388.958" height="149.344" fill="#F4F4F4"/>
<path d="M1760 877.656C1760 842.076 1739.51 807.953 1703.04 782.793C1666.57 757.634 1617.1 743.5 1565.52 743.5C1513.94 743.5 1464.47 757.634 1428 782.793C1391.53 807.953 1371.04 842.076 1371.04 877.656L1565.52 877.656H1760Z" fill="#F4F4F4"/>
<path d="M1641.31 702L1657.41 768.445H1625.21L1641.31 702Z" fill="#F4F4F4"/>
<path d="M1488.78 702L1504.88 768.445H1472.68L1488.78 702Z" fill="#F4F4F4"/>
<ellipse cx="1488.78" cy="814.641" rx="9.05663" ry="24.0469" fill="#F58114"/>
<ellipse cx="1579.34" cy="814.641" rx="9.05663" ry="24.0469" fill="#F58114"/>
<path d="M1528.98 860.323C1529.3 860.125 1529.7 860.125 1530.02 860.323L1554.37 875.303C1555.38 875.928 1554.65 877.487 1553.52 877.101L1529.82 868.999C1529.61 868.928 1529.39 868.928 1529.18 868.999L1505.48 877.101C1504.35 877.487 1503.62 875.928 1504.63 875.303L1528.98 860.323Z" fill="#F58114"/>
<rect x="1518" y="941" width="23.8332" height="48" fill="#F58114"/>
<path d="M1529.97 1010.75L1518 989H1541.94L1529.97 1010.75Z" fill="#F58114"/>
<path d="M1511.5 928H1549.5L1541.5 941.5H1518L1511.5 928Z" fill="#F58114"/>
</g>
<defs>
<clipPath id="clip0_582_2376">
<rect width="1920" height="1024" fill="white"/>
</clipPath>
<pattern id="pattern0_582_2376" patternUnits="userSpaceOnUse" patternTransform="matrix(723 0 0 354 719 454)" preserveAspectRatio="none" viewBox="0 0 1446 708" width="1" height="1">
<use xlink:href="#pattern0_582_2376_inner" transform="translate(-1446 0)"/>
<g id="pattern0_582_2376_inner">
<circle cx="95" cy="95" r="90" stroke="#F58114" stroke-width="10"/>
<line x1="547.658" y1="40.0628" x2="382.063" y2="190.342" stroke="#F58114" stroke-width="10" stroke-linecap="round"/>
<line x1="5" y1="-5" x2="228.619" y2="-5" transform="matrix(0.740521 0.672033 0.672033 -0.740521 375 33)" stroke="#F58114" stroke-width="10" stroke-linecap="round"/>
<path d="M940.042 172H757.958L849 10.1963L940.042 172Z" stroke="#F58114" stroke-width="10"/>
</g>
<use xlink:href="#pattern0_582_2376_inner" transform="translate(-723 354)"/>
<use xlink:href="#pattern0_582_2376_inner" transform="translate(723 354)"/>
</pattern></defs>
</svg>
