<svg width="651" height="67" viewBox="0 0 651 67" fill="none" xmlns="http://www.w3.org/2000/svg">
<rect x="13" y="30.2256" width="620" height="15" rx="7.5" fill="#2F6690"/>
<path d="M253 37.7256C253 51.2566 242.031 62.2256 228.5 62.2256C214.969 62.2256 204 51.2566 204 37.7256C204 24.1946 214.969 13.2256 228.5 13.2256C242.031 13.2256 253 24.1946 253 37.7256Z" fill="#F58114"/>
<circle cx="24.5" cy="37.7256" r="24.5" fill="#2F6690"/>
<path d="M39 36.7256C39 44.7337 32.5081 51.2256 24.5 51.2256C16.4919 51.2256 10 44.7337 10 36.7256C10 28.7175 16.4919 22.2256 24.5 22.2256C32.5081 22.2256 39 28.7175 39 36.7256Z" fill="#F58114"/>
<path d="M447 37.7256C447 51.2566 436.031 62.2256 422.5 62.2256C408.969 62.2256 398 51.2566 398 37.7256C398 24.1946 408.969 13.2256 422.5 13.2256C436.031 13.2256 447 24.1946 447 37.7256Z" fill="#2F6690"/>
<path d="M437 36.7256C437 44.7337 430.508 51.2256 422.5 51.2256C414.492 51.2256 408 44.7337 408 36.7256C408 28.7175 414.492 22.2256 422.5 22.2256C430.508 22.2256 437 28.7175 437 36.7256Z" fill="#F58114"/>
<path d="M651 37.7256C651 51.2566 640.031 62.2256 626.5 62.2256C612.969 62.2256 602 51.2566 602 37.7256C602 24.1946 612.969 13.2256 626.5 13.2256C640.031 13.2256 651 24.1946 651 37.7256Z" fill="#2F6690"/>
<path d="M641 36.7256C641 44.7337 634.508 51.2256 626.5 51.2256C618.492 51.2256 612 44.7337 612 36.7256C612 28.7175 618.492 22.2256 626.5 22.2256C634.508 22.2256 641 28.7175 641 36.7256Z" fill="#F58114"/>
<path d="M230.812 35.7291C230.812 34.1651 230.448 32.6164 229.741 31.1714C229.034 29.7265 227.997 28.4136 226.69 27.3076C225.383 26.2017 223.831 25.3244 222.124 24.7259C220.416 24.1274 218.586 23.8193 216.737 23.8193C214.889 23.8193 213.059 24.1274 211.351 24.7259C209.643 25.3244 208.092 26.2017 206.785 27.3076C205.478 28.4136 204.441 29.7265 203.734 31.1714C203.026 32.6164 202.662 34.1651 202.662 35.7291L216.737 35.7291H230.812Z" fill="#F4F4F4"/>
<circle cx="215.294" cy="58.827" r="7.57895" fill="#F58114"/>
<circle cx="253.188" cy="60.6314" r="5.77444" fill="#F58114"/>
<path d="M269.612 58.7188C269.612 61.0347 267.735 62.9121 265.419 62.9121H261.871C260.827 62.9121 260.08 61.8904 260.08 60.8467C260.08 56.8989 256.879 53.6982 252.932 53.6982C248.984 53.6984 245.784 56.899 245.784 60.8467C245.784 61.8904 245.037 62.9121 243.994 62.9121H227.603C225.763 62.9121 224.498 60.9399 224.498 59.0996C224.498 54.0113 220.373 49.8858 215.285 49.8857C210.197 49.8857 206.072 54.0113 206.072 59.0996C206.072 60.9399 204.808 62.9121 202.968 62.9121H200.404C198.096 62.9121 196.225 61.0411 196.225 58.7332V49.251C196.225 41.7061 202.341 35.5898 209.886 35.5898H255.951C263.496 35.5898 269.612 41.7061 269.612 49.251V58.7188Z" fill="#2F6690"/>
<path d="M247.056 41.626H199.084V8.26758H247.056V41.626ZM213.849 13.0332C208.326 13.0332 203.849 17.5104 203.849 23.0332V26.8604C203.849 32.3831 208.326 36.8603 213.849 36.8604H218.946C224.469 36.8604 228.946 32.3831 228.946 26.8604V23.0332C228.946 17.5104 224.469 13.0332 218.946 13.0332H213.849Z" fill="#2F6690"/>
<path d="M194 4.69173C194 2.10056 196.101 0 198.692 0H248.496C251.087 0 253.188 2.10056 253.188 4.69173C253.188 7.2829 251.087 9.38346 248.496 9.38346H198.692C196.101 9.38346 194 7.2829 194 4.69173Z" fill="#F58114"/>
<path d="M268.345 37.5337L268.345 47.9999V58.466C269.864 58.466 271.346 58.0728 272.676 57.3379V38.6618C271.346 37.9269 269.864 37.5337 268.345 37.5337Z" fill="#2F6690"/>
<path d="M272.677 38.9775V57.0227C273.662 56.5437 274.572 55.9147 275.367 55.1507C277.342 53.2543 278.451 50.6821 278.451 48.0001C278.451 45.3181 277.342 42.7459 275.367 40.8495C274.572 40.0855 273.662 39.4565 272.677 38.9775Z" fill="#F58114"/>
<path d="M195.443 54.1355C195.443 51.7437 197.382 49.8047 199.774 49.8047H266.902C269.294 49.8047 271.233 51.7437 271.233 54.1355C271.233 56.5274 269.294 58.4663 266.902 58.4663H199.774C197.382 58.4663 195.443 56.5274 195.443 54.1355Z" fill="#F58114"/>
<path d="M257.52 22.7369C257.52 20.943 258.974 19.4888 260.768 19.4888V19.4888C262.562 19.4888 264.016 20.943 264.016 22.7369V35.3685H257.52V22.7369Z" fill="#F58114"/>
<rect x="271.232" y="38.2559" width="1.44361" height="19.4887" rx="0.721804" fill="#2F6690"/>
<path d="M266.18 54.8047C266.18 52.0433 268.418 49.8047 271.18 49.8047H274.99C276.981 49.8047 278.783 50.9865 279.576 52.8133L281.189 56.5275C282.623 59.8295 280.203 63.519 276.603 63.519H271.18C268.418 63.519 266.18 61.2804 266.18 58.519V54.8047Z" fill="#F58114"/>
<rect x="256.074" y="19.4888" width="9.38346" height="2.88722" fill="#2F6690"/>
<path d="M247.414 35.0075C247.414 34.4095 247.899 33.9248 248.497 33.9248V33.9248C249.095 33.9248 249.579 34.4095 249.579 35.0075V50.5263H247.414V35.0075Z" fill="#F58114"/>
<ellipse cx="215.294" cy="29.5941" rx="1.08271" ry="2.16541" fill="#F58114"/>
<ellipse cx="221.79" cy="29.5941" rx="1.08271" ry="2.16541" fill="#F58114"/>
<path d="M210.963 21.6543L212.525 26.5265H209.4L210.963 21.6543Z" fill="#F4F4F4"/>
<path d="M221.428 21.6543L222.678 26.5265H220.178L221.428 21.6543Z" fill="#F4F4F4"/>
</svg>
