<svg width="683" height="78" viewBox="0 0 683 78" fill="none" xmlns="http://www.w3.org/2000/svg">
<rect x="19" y="41" width="620" height="15" rx="7.5" fill="#2F6690"/>
<path d="M259 48.5C259 62.031 248.031 73 234.5 73C220.969 73 210 62.031 210 48.5C210 34.969 220.969 24 234.5 24C248.031 24 259 34.969 259 48.5Z" fill="#2F6690"/>
<path d="M250 47.5C250 55.5081 243.508 62 235.5 62C227.492 62 221 55.5081 221 47.5C221 39.4919 227.492 33 235.5 33C243.508 33 250 39.4919 250 47.5Z" fill="#F58114"/>
<circle cx="30.5" cy="48.5" r="24.5" fill="#2F6690"/>
<path d="M45 47.5C45 55.5081 38.5081 62 30.5 62C22.4919 62 16 55.5081 16 47.5C16 39.4919 22.4919 33 30.5 33C38.5081 33 45 39.4919 45 47.5Z" fill="#F58114"/>
<path d="M453 48.5C453 62.031 442.031 73 428.5 73C414.969 73 404 62.031 404 48.5C404 34.969 414.969 24 428.5 24C442.031 24 453 34.969 453 48.5Z" fill="#F58114"/>
<path d="M657 48.5C657 62.031 646.031 73 632.5 73C618.969 73 608 62.031 608 48.5C608 34.969 618.969 24 632.5 24C646.031 24 657 34.969 657 48.5Z" fill="#2F6690"/>
<path d="M647 47.5C647 55.5081 640.508 62 632.5 62C624.492 62 618 55.5081 618 47.5C618 39.4919 624.492 33 632.5 33C640.508 33 647 39.4919 647 47.5Z" fill="#F58114"/>
<path d="M430.812 46.5035C430.812 44.9395 430.448 43.3908 429.741 41.9459C429.034 40.5009 427.997 39.188 426.69 38.082C425.383 36.9761 423.831 36.0988 422.124 35.5003C420.416 34.9018 418.586 34.5937 416.737 34.5938C414.889 34.5938 413.059 34.9018 411.351 35.5003C409.643 36.0989 408.092 36.9761 406.785 38.082C405.478 39.188 404.441 40.5009 403.734 41.9459C403.026 43.3908 402.662 44.9395 402.662 46.5035L416.737 46.5035H430.812Z" fill="#F4F4F4"/>
<circle cx="415.294" cy="69.6014" r="7.57895" fill="#F58114"/>
<circle cx="453.189" cy="71.4058" r="5.77444" fill="#F58114"/>
<path d="M469.612 69.4932C469.612 71.8091 467.735 73.6865 465.419 73.6865H461.871C460.827 73.6865 460.08 72.6648 460.08 71.6211C460.08 67.6733 456.879 64.4727 452.932 64.4727C448.984 64.4728 445.784 67.6734 445.784 71.6211C445.784 72.6648 445.037 73.6865 443.994 73.6865H427.603C425.763 73.6865 424.498 71.7143 424.498 69.874C424.498 64.7858 420.373 60.6602 415.285 60.6602C410.197 60.6602 406.072 64.7857 406.072 69.874C406.072 71.7143 404.808 73.6865 402.968 73.6865H400.404C398.096 73.6865 396.225 71.8155 396.225 69.5076V60.0254C396.225 52.4806 402.341 46.3643 409.886 46.3643H455.951C463.496 46.3643 469.612 52.4806 469.612 60.0254V69.4932Z" fill="#2F6690"/>
<path d="M447.056 52.4004H399.084V19.042H447.056V52.4004ZM413.849 23.8076C408.326 23.8076 403.849 28.2848 403.849 33.8076V37.6348C403.849 43.1575 408.326 47.6347 413.849 47.6348H418.946C424.469 47.6348 428.946 43.1575 428.946 37.6348V33.8076C428.946 28.2848 424.469 23.8076 418.946 23.8076H413.849Z" fill="#2F6690"/>
<path d="M394 15.4661C394 12.875 396.101 10.7744 398.692 10.7744H448.496C451.087 10.7744 453.188 12.875 453.188 15.4661C453.188 18.0573 451.087 20.1579 448.496 20.1579H398.692C396.101 20.1579 394 18.0573 394 15.4661Z" fill="#F58114"/>
<path d="M468.345 48.3081L468.345 58.7743V69.2404C469.864 69.2404 471.346 68.8472 472.676 68.1123V49.4362C471.346 48.7014 469.864 48.3081 468.345 48.3081Z" fill="#2F6690"/>
<path d="M472.677 49.752V67.7971C473.662 67.3182 474.572 66.6891 475.367 65.9252C477.342 64.0287 478.451 61.4565 478.451 58.7745C478.451 56.0925 477.342 53.5203 475.367 51.6239C474.572 50.8599 473.662 50.2309 472.677 49.752Z" fill="#F58114"/>
<path d="M395.443 64.9099C395.443 62.5181 397.382 60.5791 399.774 60.5791H466.902C469.294 60.5791 471.233 62.5181 471.233 64.9099C471.233 67.3018 469.294 69.2408 466.902 69.2408H399.774C397.382 69.2408 395.443 67.3018 395.443 64.9099Z" fill="#F58114"/>
<path d="M457.52 33.5113C457.52 31.7174 458.974 30.2632 460.768 30.2632V30.2632C462.562 30.2632 464.016 31.7174 464.016 33.5113V46.1429H457.52V33.5113Z" fill="#F58114"/>
<rect x="471.232" y="49.0303" width="1.44361" height="19.4887" rx="0.721804" fill="#2F6690"/>
<path d="M466.18 65.5791C466.18 62.8177 468.418 60.5791 471.18 60.5791H474.99C476.981 60.5791 478.783 61.7609 479.576 63.5877L481.189 67.302C482.623 70.6039 480.203 74.2934 476.603 74.2934H471.18C468.418 74.2934 466.18 72.0548 466.18 69.2934V65.5791Z" fill="#F58114"/>
<rect x="456.074" y="30.2632" width="9.38346" height="2.88722" fill="#2F6690"/>
<path d="M447.414 45.7819C447.414 45.184 447.899 44.6992 448.497 44.6992V44.6992C449.095 44.6992 449.579 45.184 449.579 45.7819V61.3007H447.414V45.7819Z" fill="#F58114"/>
<ellipse cx="415.294" cy="40.3685" rx="1.08271" ry="2.16541" fill="#F58114"/>
<ellipse cx="421.79" cy="40.3685" rx="1.08271" ry="2.16541" fill="#F58114"/>
<path d="M410.963 32.4287L412.525 37.3009H409.4L410.963 32.4287Z" fill="#F4F4F4"/>
<path d="M421.428 32.4287L422.678 37.3009H420.178L421.428 32.4287Z" fill="#F4F4F4"/>
</svg>
