<svg width="663" height="67" viewBox="0 0 663 67" fill="none" xmlns="http://www.w3.org/2000/svg">
<rect x="25" y="24" width="620" height="15" rx="7.5" fill="#2F6690"/>
<circle cx="36.5" cy="31.5" r="24.5" fill="#F58114"/>
<path d="M265 31.5C265 45.031 254.031 56 240.5 56C226.969 56 216 45.031 216 31.5C216 17.969 226.969 7 240.5 7C254.031 7 265 17.969 265 31.5Z" fill="#2F6690"/>
<path d="M255 30.5C255 38.5081 248.508 45 240.5 45C232.492 45 226 38.5081 226 30.5C226 22.4919 232.492 16 240.5 16C248.508 16 255 22.4919 255 30.5Z" fill="#F58114"/>
<path d="M459 31.5C459 45.031 448.031 56 434.5 56C420.969 56 410 45.031 410 31.5C410 17.969 420.969 7 434.5 7C448.031 7 459 17.969 459 31.5Z" fill="#2F6690"/>
<path d="M449 30.5C449 38.5081 442.508 45 434.5 45C426.492 45 420 38.5081 420 30.5C420 22.4919 426.492 16 434.5 16C442.508 16 449 22.4919 449 30.5Z" fill="#F58114"/>
<path d="M663 31.5C663 45.031 652.031 56 638.5 56C624.969 56 614 45.031 614 31.5C614 17.969 624.969 7 638.5 7C652.031 7 663 17.969 663 31.5Z" fill="#2F6690"/>
<path d="M653 30.5C653 38.5081 646.508 45 638.5 45C630.492 45 624 38.5081 624 30.5C624 22.4919 630.492 16 638.5 16C646.508 16 653 22.4919 653 30.5Z" fill="#F58114"/>
<path d="M36.8125 35.7291C36.8125 34.1651 36.4484 32.6164 35.7411 31.1714C35.0337 29.7265 33.997 28.4136 32.69 27.3076C31.383 26.2017 29.8313 25.3244 28.1236 24.7259C26.416 24.1274 24.5857 23.8193 22.7373 23.8193C20.8889 23.8193 19.0586 24.1274 17.351 24.7259C15.6433 25.3244 14.0916 26.2017 12.7846 27.3076C11.4776 28.4136 10.4409 29.7265 9.73352 31.1714C9.02617 32.6164 8.66211 34.1651 8.66211 35.7291L22.7373 35.7291H36.8125Z" fill="#F4F4F4"/>
<circle cx="21.2938" cy="58.827" r="7.57895" fill="#F58114"/>
<circle cx="59.1885" cy="60.6314" r="5.77444" fill="#F58114"/>
<path d="M75.6123 58.7188C75.6123 61.0347 73.7349 62.9121 71.419 62.9121H67.8707C66.827 62.9121 66.08 61.8904 66.0801 60.8467C66.0801 56.8989 62.8795 53.6982 58.9316 53.6982C54.984 53.6984 51.7842 56.899 51.7842 60.8467C51.7842 61.8904 51.0373 62.9121 49.9936 62.9121H33.6028C31.7625 62.9121 30.498 60.9399 30.498 59.0996C30.498 54.0113 26.3734 49.8858 21.2852 49.8857C16.1969 49.8857 12.0723 54.0113 12.0723 59.0996C12.0724 60.9399 10.8078 62.9121 8.96752 62.9121H6.40357C4.09559 62.9121 2.22461 61.0411 2.22461 58.7332V49.251C2.22461 41.7061 8.34091 35.5898 15.8857 35.5898H61.9512C69.496 35.5898 75.6123 41.7061 75.6123 49.251V58.7188Z" fill="#2F6690"/>
<path d="M53.0557 41.626H5.08398V8.26758H53.0557V41.626ZM19.8486 13.0332C14.3258 13.0332 9.84863 17.5104 9.84863 23.0332V26.8604C9.84871 32.3831 14.3259 36.8603 19.8486 36.8604H24.9463C30.4691 36.8604 34.9462 32.3831 34.9463 26.8604V23.0332C34.9463 17.5104 30.4691 13.0332 24.9463 13.0332H19.8486Z" fill="#2F6690"/>
<path d="M0 4.69173C0 2.10056 2.10056 0 4.69173 0H54.4962C57.0874 0 59.188 2.10056 59.188 4.69173C59.188 7.2829 57.0874 9.38346 54.4962 9.38346H4.69172C2.10056 9.38346 0 7.2829 0 4.69173Z" fill="#F58114"/>
<path d="M74.345 37.5337L74.345 47.9999V58.466C75.8638 58.466 77.3455 58.0728 78.6758 57.3379V38.6618C77.3455 37.9269 75.8638 37.5337 74.345 37.5337Z" fill="#2F6690"/>
<path d="M78.6767 38.9775V57.0227C79.662 56.5437 80.5716 55.9147 81.367 55.1507C83.3418 53.2543 84.4512 50.6821 84.4512 48.0001C84.4512 45.3181 83.3418 42.7459 81.367 40.8495C80.5716 40.0855 79.662 39.4565 78.6767 38.9775Z" fill="#F58114"/>
<path d="M1.44336 54.1355C1.44336 51.7437 3.38234 49.8047 5.77419 49.8047H72.902C75.2939 49.8047 77.2328 51.7437 77.2328 54.1355C77.2328 56.5274 75.2939 58.4663 72.902 58.4663H5.77418C3.38233 58.4663 1.44336 56.5274 1.44336 54.1355Z" fill="#F58114"/>
<path d="M63.5195 22.7369C63.5195 20.943 64.9738 19.4888 66.7677 19.4888V19.4888C68.5615 19.4888 70.0158 20.943 70.0158 22.7369V35.3685H63.5195V22.7369Z" fill="#F58114"/>
<rect x="77.2324" y="38.2559" width="1.44361" height="19.4887" rx="0.721804" fill="#2F6690"/>
<path d="M72.1797 54.8047C72.1797 52.0433 74.4183 49.8047 77.1797 49.8047H80.99C82.9815 49.8047 84.7831 50.9865 85.5763 52.8133L87.189 56.5275C88.6228 59.8295 86.2025 63.519 82.6027 63.519H77.1797C74.4183 63.519 72.1797 61.2804 72.1797 58.519V54.8047Z" fill="#F58114"/>
<rect x="62.0742" y="19.4888" width="9.38346" height="2.88722" fill="#2F6690"/>
<path d="M53.4141 35.0075C53.4141 34.4095 53.8988 33.9248 54.4968 33.9248V33.9248C55.0947 33.9248 55.5795 34.4095 55.5795 35.0075V50.5263H53.4141V35.0075Z" fill="#F58114"/>
<ellipse cx="21.2936" cy="29.5941" rx="1.08271" ry="2.16541" fill="#F58114"/>
<ellipse cx="27.7897" cy="29.5941" rx="1.08271" ry="2.16541" fill="#F58114"/>
<path d="M16.9627 21.6543L18.5255 26.5265H15.4L16.9627 21.6543Z" fill="#F4F4F4"/>
<path d="M27.428 21.6543L28.6782 26.5265H26.1778L27.428 21.6543Z" fill="#F4F4F4"/>
</svg>
