<svg width="683" height="67" viewBox="0 0 683 67" fill="none" xmlns="http://www.w3.org/2000/svg">
<rect x="13" y="30.2256" width="620" height="15" rx="7.5" fill="#2F6690"/>
<path d="M253 37.7256C253 51.2566 242.031 62.2256 228.5 62.2256C214.969 62.2256 204 51.2566 204 37.7256C204 24.1946 214.969 13.2256 228.5 13.2256C242.031 13.2256 253 24.1946 253 37.7256Z" fill="#2F6690"/>
<path d="M244 36.7256C244 44.7337 237.508 51.2256 229.5 51.2256C221.492 51.2256 215 44.7337 215 36.7256C215 28.7175 221.492 22.2256 229.5 22.2256C237.508 22.2256 244 28.7175 244 36.7256Z" fill="#F58114"/>
<circle cx="24.5" cy="37.7256" r="24.5" fill="#2F6690"/>
<path d="M39 36.7256C39 44.7337 32.5081 51.2256 24.5 51.2256C16.4919 51.2256 10 44.7337 10 36.7256C10 28.7175 16.4919 22.2256 24.5 22.2256C32.5081 22.2256 39 28.7175 39 36.7256Z" fill="#F58114"/>
<path d="M447 37.7256C447 51.2566 436.031 62.2256 422.5 62.2256C408.969 62.2256 398 51.2566 398 37.7256C398 24.1946 408.969 13.2256 422.5 13.2256C436.031 13.2256 447 24.1946 447 37.7256Z" fill="#2F6690"/>
<path d="M651 37.7256C651 51.2566 640.031 62.2256 626.5 62.2256C612.969 62.2256 602 51.2566 602 37.7256C602 24.1946 612.969 13.2256 626.5 13.2256C640.031 13.2256 651 24.1946 651 37.7256Z" fill="#F58114"/>
<path d="M437 36.7256C437 44.7337 430.508 51.2256 422.5 51.2256C414.492 51.2256 408 44.7337 408 36.7256C408 28.7175 414.492 22.2256 422.5 22.2256C430.508 22.2256 437 28.7175 437 36.7256Z" fill="#F58114"/>
<path d="M628.812 35.7291C628.812 34.1651 628.448 32.6164 627.741 31.1714C627.034 29.7265 625.997 28.4136 624.69 27.3076C623.383 26.2017 621.831 25.3244 620.124 24.7259C618.416 24.1274 616.586 23.8193 614.737 23.8193C612.889 23.8193 611.059 24.1274 609.351 24.7259C607.643 25.3244 606.092 26.2017 604.785 27.3076C603.478 28.4136 602.441 29.7265 601.734 31.1714C601.026 32.6164 600.662 34.1651 600.662 35.7291L614.737 35.7291H628.812Z" fill="#F4F4F4"/>
<circle cx="613.294" cy="58.827" r="7.57895" fill="#F58114"/>
<circle cx="651.188" cy="60.6314" r="5.77444" fill="#F58114"/>
<path d="M667.612 58.7188C667.612 61.0347 665.735 62.9121 663.419 62.9121H659.871C658.827 62.9121 658.08 61.8904 658.08 60.8467C658.08 56.8989 654.879 53.6982 650.932 53.6982C646.984 53.6984 643.784 56.899 643.784 60.8467C643.784 61.8904 643.037 62.9121 641.994 62.9121H625.603C623.763 62.9121 622.498 60.9399 622.498 59.0996C622.498 54.0113 618.373 49.8858 613.285 49.8857C608.197 49.8857 604.072 54.0113 604.072 59.0996C604.072 60.9399 602.808 62.9121 600.968 62.9121H598.404C596.096 62.9121 594.225 61.0411 594.225 58.7332V49.251C594.225 41.7061 600.341 35.5898 607.886 35.5898H653.951C661.496 35.5898 667.612 41.7061 667.612 49.251V58.7188Z" fill="#2F6690"/>
<path d="M645.056 41.626H597.084V8.26758H645.056V41.626ZM611.849 13.0332C606.326 13.0332 601.849 17.5104 601.849 23.0332V26.8604C601.849 32.3831 606.326 36.8603 611.849 36.8604H616.946C622.469 36.8604 626.946 32.3831 626.946 26.8604V23.0332C626.946 17.5104 622.469 13.0332 616.946 13.0332H611.849Z" fill="#2F6690"/>
<path d="M592 4.69173C592 2.10056 594.101 0 596.692 0H646.496C649.087 0 651.188 2.10056 651.188 4.69173C651.188 7.2829 649.087 9.38346 646.496 9.38346H596.692C594.101 9.38346 592 7.2829 592 4.69173Z" fill="#F58114"/>
<path d="M666.345 37.5337L666.345 47.9999V58.466C667.864 58.466 669.346 58.0728 670.676 57.3379V38.6618C669.346 37.9269 667.864 37.5337 666.345 37.5337Z" fill="#2F6690"/>
<path d="M670.677 38.9775V57.0227C671.662 56.5437 672.572 55.9147 673.367 55.1507C675.342 53.2543 676.451 50.6821 676.451 48.0001C676.451 45.3181 675.342 42.7459 673.367 40.8495C672.572 40.0855 671.662 39.4565 670.677 38.9775Z" fill="#F58114"/>
<path d="M593.443 54.1355C593.443 51.7437 595.382 49.8047 597.774 49.8047H664.902C667.294 49.8047 669.233 51.7437 669.233 54.1355C669.233 56.5274 667.294 58.4663 664.902 58.4663H597.774C595.382 58.4663 593.443 56.5274 593.443 54.1355Z" fill="#F58114"/>
<path d="M655.52 22.7369C655.52 20.943 656.974 19.4888 658.768 19.4888V19.4888C660.562 19.4888 662.016 20.943 662.016 22.7369V35.3685H655.52V22.7369Z" fill="#F58114"/>
<rect x="669.232" y="38.2559" width="1.44361" height="19.4887" rx="0.721804" fill="#2F6690"/>
<path d="M664.18 54.8047C664.18 52.0433 666.418 49.8047 669.18 49.8047H672.99C674.981 49.8047 676.783 50.9865 677.576 52.8133L679.189 56.5275C680.623 59.8295 678.203 63.519 674.603 63.519H669.18C666.418 63.519 664.18 61.2804 664.18 58.519V54.8047Z" fill="#F58114"/>
<rect x="654.074" y="19.4888" width="9.38346" height="2.88722" fill="#2F6690"/>
<path d="M645.414 35.0075C645.414 34.4095 645.899 33.9248 646.497 33.9248V33.9248C647.095 33.9248 647.579 34.4095 647.579 35.0075V50.5263H645.414V35.0075Z" fill="#F58114"/>
<ellipse cx="613.294" cy="29.5941" rx="1.08271" ry="2.16541" fill="#F58114"/>
<ellipse cx="619.79" cy="29.5941" rx="1.08271" ry="2.16541" fill="#F58114"/>
<path d="M608.963 21.6543L610.525 26.5265H607.4L608.963 21.6543Z" fill="#F4F4F4"/>
<path d="M619.428 21.6543L620.678 26.5265H618.178L619.428 21.6543Z" fill="#F4F4F4"/>
</svg>
